<svg xmlns="http://www.w3.org/2000/svg" width="217" height="235" fill="none" viewBox="0 0 217 235"><g clip-path="url(#clip0_11_2)" filter="url(#filter0_f_11_2)"><rect width="213" height="231" fill="url(#paint0_linear_11_2)" transform="translate(2 2)"/><g filter="url(#filter1_f_11_2)"><path fill="url(#paint1_radial_11_2)" d="M2.3508 241.614C-4.65738 168.352 95.3685 93.096 120.853 96.0863C146.337 99.0766 144.426 167.355 171.184 191.277C190.06 208.152 220.229 237.892 239.767 241.614H247C244.815 242.144 242.387 242.113 239.767 241.614H2.3508Z"/></g><g style="mix-blend-mode:lighten" filter="url(#filter2_f_11_2)"><path fill="url(#paint2_radial_11_2)" fill-opacity=".7" d="M10.3265 229.614C3.80456 156.352 96.8898 81.096 120.606 84.0863C144.322 87.0766 142.543 155.355 167.445 179.277C185.011 196.152 213.087 225.892 231.269 229.614H238C235.967 230.144 233.707 230.113 231.269 229.614H10.3265Z"/></g></g><defs><filter id="filter0_f_11_2" width="217" height="235" x="0" y="0" color-interpolation-filters="sRGB" filterUnits="userSpaceOnUse"><feFlood flood-opacity="0" result="BackgroundImageFix"/><feBlend in="SourceGraphic" in2="BackgroundImageFix" mode="normal" result="shape"/><feGaussianBlur result="effect1_foregroundBlur_11_2" stdDeviation="1"/></filter><filter id="filter1_f_11_2" width="255" height="156" x="-3" y="91" color-interpolation-filters="sRGB" filterUnits="userSpaceOnUse"><feFlood flood-opacity="0" result="BackgroundImageFix"/><feBlend in="SourceGraphic" in2="BackgroundImageFix" mode="normal" result="shape"/><feGaussianBlur result="effect1_foregroundBlur_11_2" stdDeviation="2.5"/></filter><filter id="filter2_f_11_2" width="368" height="286" x="-60" y="14" color-interpolation-filters="sRGB" filterUnits="userSpaceOnUse"><feFlood flood-opacity="0" result="BackgroundImageFix"/><feBlend in="SourceGraphic" in2="BackgroundImageFix" mode="normal" result="shape"/><feGaussianBlur result="effect1_foregroundBlur_11_2" stdDeviation="35"/></filter><linearGradient id="paint0_linear_11_2" x1="197.5" x2="95.5" y1="-15" y2="173.5" gradientUnits="userSpaceOnUse"><stop stop-color="#020304"/><stop offset=".479"/><stop offset=".976"/></linearGradient><radialGradient id="paint1_radial_11_2" cx="0" cy="0" r="1" gradientTransform="translate(102.5 242) rotate(-76.6625) scale(169.06 283.696)" gradientUnits="userSpaceOnUse"><stop offset=".113" stop-color="#fff" stop-opacity=".93"/><stop offset=".251" stop-color="#D0C9FA" stop-opacity=".77"/><stop offset=".37" stop-color="#654DFD" stop-opacity=".77"/><stop offset=".494" stop-color="#2400FF" stop-opacity=".77"/><stop offset=".719" stop-color="#0C0054" stop-opacity=".877"/><stop offset=".885" stop-color="#02000F"/></radialGradient><radialGradient id="paint2_radial_11_2" cx="0" cy="0" r="1" gradientTransform="translate(103.527 230) rotate(-77.5581) scale(168.456 264.957)" gradientUnits="userSpaceOnUse"><stop offset=".113" stop-color="#fff" stop-opacity=".93"/><stop offset=".251" stop-color="#D0C9FA" stop-opacity=".77"/><stop offset=".37" stop-color="#654DFD" stop-opacity=".77"/><stop offset=".494" stop-color="#2400FF" stop-opacity=".77"/><stop offset=".719" stop-color="#0C0054" stop-opacity=".877"/><stop offset=".885" stop-color="#02000F"/></radialGradient><clipPath id="clip0_11_2"><rect width="213" height="231" fill="#fff" transform="translate(2 2)"/></clipPath></defs></svg>